<?xml version="1.0" encoding="utf-8"?>
<!-- Generator: Adobe Illustrator 25.2.0, SVG Export Plug-In . SVG Version: 6.00 Build 0)  -->
<svg version="1.1" id="Layer_1" xmlns="http://www.w3.org/2000/svg" xmlns:xlink="http://www.w3.org/1999/xlink" x="0px" y="0px"
	 viewBox="0 0 5000 5000" style="enable-background:new 0 0 5000 5000;" xml:space="preserve">
<style type="text/css">
	.st0{fill:#FFFFFF;stroke:#70BC7D;stroke-width:80;stroke-miterlimit:10;}
</style>
<g>
	<path class="st0" d="M1200.6,4308.6c-175.4,37.5-362.9-85.9-404-261.2c-48.3-169.3,64.2-360.4,231-413.6
		c185-72.5,411.3,59.3,448.8,252.8C1526,4071.4,1389.3,4275.9,1200.6,4308.6z"/>
	<path class="st0" d="M2873.4,4313.4c-201.9,2.4-382.2-199.6-344.7-400.4c15.7-142.8,134.3-261.2,271-290.3
		c201.9-53.2,417.3,118.6,422.2,322.9C3236.3,4138,3067,4318.3,2873.4,4313.4z"/>
	<path class="st0" d="M4858.4,1172.1c-244.3,26.7-494.7-6.1-739,15.7c-199.6,707.6-389.5,1414-584.3,2124
		c-15.7,83.5-94.3,145.1-180.3,134.3c-947.2-2.4-1890.5,2.4-2837.7-2.4c-182.6,4.9-191.1-290.3-4.9-292.8
		c919.3-8.5,1839.8,4.9,2759.1-4.9c209.2-712.5,389.5-1435.8,593.9-2151.9c15.7-59.3,72.5-107.6,136.7-101.6
		c277.1-2.4,554-4.9,831,0C4977,906,4995.1,1132.2,4858.4,1172.1z"/>
	<path class="st0" d="M3380.3,920.5c-1064.4,2.4-2127.7-4.9-3192.1,4.9C89,933.9,51.5,1054.8,82.9,1138.3
		c136.7,534.6,268.5,1075.3,408.9,1611.2c13.3,83.5,96.8,129.4,174.2,123.4c753.6,0,1505.9,0,2259.5,0c75,4.9,160.9-26.7,177.8-110
		c147.5-545.6,285.5-1092.3,430.7-1637.8C3573.8,1025.7,3487.9,907.2,3380.3,920.5z M483.3,1496.3c-35.1-88.3-56.8-185-72.5-281.8
		c250.4,2.4,497.1-8.5,745.1,8.5c8.5,91.9,15.7,182.6,13.3,277.1C940.5,1498.7,711.9,1502.4,483.3,1496.3z M618.8,2041.7
		c-30.2-81.1-48.3-164.5-61.7-248c212.9-2.4,424.6-15.7,635.1,4.9c13.3,83.5,19.4,164.5,15.7,248
		C1010.7,2050.3,814.8,2061.1,618.8,2041.7z M1245.3,2571.6c-164.5,2.4-327.8,4.9-492.3,0c-26.7-72.5-46-147.5-56.8-223.7
		c177.8,0,352-2.4,529.8,2.4C1242.9,2424,1247.7,2499.1,1245.3,2571.6z M2107.7,2575.3c-185,0-371.4,0-556.4-2.4
		c-18.1-72.5-21.8-147.5-18.1-223.7c191.1,0,387.1-2.4,578.2,2.4C2142.8,2416.8,2113.8,2502.6,2107.7,2575.3z M2148.9,2034.6
		c-209.2,32.6-427,19.4-639.9,8.5c-10.8-81.1-15.7-164.5-13.3-248c220.2-2.4,446.4-19.4,666.5,8.5
		C2162.2,1880.9,2159.8,1959.6,2148.9,2034.6z M2183.9,1493.8c-237.1,8.5-470.5,4.9-707.6,2.4c-19.4-91.9-24.2-188.7-19.4-281.8
		c248,0,494.7-2.4,742.7,2.4C2199.7,1308.8,2191.3,1401.9,2183.9,1493.8z M2850.5,2569.2c-142.8,10.8-287.9,4.9-433,4.9
		c-4.9-75-2.4-151.2,6.1-223.7c164.5-4.9,325.4-2.4,486.3,0C2894,2424,2877.1,2496.6,2850.5,2569.2z M2971.4,2045.4
		c-171.8,10.8-347.2,6.1-518.9,6.1c-8.5-85.9-2.4-169.3,10.8-255.3c193.5-10.8,389.5-2.4,586.6-2.4
		C3028.2,1876.1,3030.7,1983.7,2971.4,2045.4z M3127.5,1496.3c-209.2,4.9-422.2,2.4-632.6,0c-29-85.9,0-188.7,6.1-279.4
		c231-4.9,465.7-4.9,699.2,0C3184.3,1311.3,3162.5,1405.6,3127.5,1496.3z"/>
</g>
</svg>
