<?xml version="1.0" encoding="utf-8"?>
<!-- Generator: Adobe Illustrator 25.2.0, SVG Export Plug-In . SVG Version: 6.00 Build 0)  -->
<svg version="1.1" id="Capa_1" xmlns="http://www.w3.org/2000/svg" xmlns:xlink="http://www.w3.org/1999/xlink" x="0px" y="0px"
	 viewBox="0 0 1122 1122" style="enable-background:new 0 0 1122 1122;" xml:space="preserve">
<style type="text/css">
	.st0{fill:#FFFFFF;stroke:#70BC7D;stroke-width:18.4877;stroke-miterlimit:10;}
</style>
<g id="Bg">
</g>
<g id="Object">
	<g>
		<path class="st0" d="M1054.1,198c-11.9-11.9-28.1-18.5-44.8-18.5H901.7v83.2c0,15.4-12.5,28.1-28.1,28.1h-59.2
			c-15.6,0-28.1-12.5-28.1-28.1v-83.2H335.8v83.2c0,15.4-12.5,28.1-28.1,28.1h-59.2c-15.6,0-28.1-12.5-28.1-28.1v-83.2h-65.9h-33.7
			h-8c-16.6,0-33.1,6.8-44.8,18.5c-11.9,11.9-18.5,28.1-18.5,44.8v73.7v43.3v37.6h1023.4v-37.6v-43.3v-73.7
			C1072.6,226.4,1066,209.9,1054.1,198z"/>
		<rect x="248.5" y="106.4" class="st0" width="59.2" height="156.1"/>
		<path class="st0" d="M248.5,78.3c-15.6,0-28.1,12.5-28.1,28.1v73.1v83.2c0,15.4,12.5,28.1,28.1,28.1h59.2
			c15.6,0,28.1-12.5,28.1-28.1v-83.2v-73.1c0-15.6-12.5-28.1-28.1-28.1H248.5z M307.6,262.5h-59.2V106.4h59.2V262.5z"/>
		<rect x="814.2" y="106.4" class="st0" width="59.2" height="156.1"/>
		<path class="st0" d="M814.2,78.3c-15.6,0-28.1,12.5-28.1,28.1v73.1v83.2c0,15.4,12.5,28.1,28.1,28.1h59.2
			c15.6,0,28.1-12.5,28.1-28.1v-83.2v-73.1c0-15.6-12.5-28.1-28.1-28.1H814.2z M873.3,262.5h-59.2V106.4h59.2V262.5z"/>
		<g>
			<path class="st0" d="M713.1,703.8c-13.6,0-25.1,5.3-34.3,16c-9.4,10.7-14,26.3-14,47c0,23,5.3,40.7,15.8,53.2
				c10.5,12.5,22.6,18.7,36.2,18.7c13.1,0,24-5.1,32.7-15.4c8.6-10.3,13.1-26.9,13.1-50.1c0-24-4.7-41.5-14-52.6
				C739,709.3,727.3,703.8,713.1,703.8z"/>
			<path class="st0" d="M49.2,420.7v525.1c0,16.6,6.8,33.1,18.5,45c11.9,11.9,28.1,18.5,44.8,18.5h8h33.7h854.8
				c16.6,0,33.1-6.8,44.8-18.7c11.9-11.9,18.5-28.1,18.5-44.8V420.7H49.2z M537.9,825.2v65.5H290.6c2.7-24.9,10.7-48.3,24-70.5
				c13.4-22.2,39.9-51.6,79.3-88.3c31.8-29.6,51.4-49.7,58.5-60.2c9.7-14.6,14.6-29,14.6-43.1c0-15.8-4.3-27.7-12.7-36.4
				c-8.4-8.4-20.1-12.7-35.1-12.7c-14.8,0-26.5,4.5-35.1,13.4c-8.6,8.8-13.8,23.6-15,44.2l-70.3-7c4.1-38.8,17.3-66.8,39.4-83.6
				c22.2-16.8,49.7-25.3,82.8-25.3c36.4,0,64.9,9.9,85.7,29.4c20.7,19.5,31.2,44,31.2,73.1c0,16.6-2.9,32.5-8.8,47.2
				c-6,15-15.4,30.6-28.3,47c-8.6,10.9-24,26.5-46.2,47c-22.2,20.3-36.4,33.9-42.3,40.7s-10.7,13.1-14.4,19.5H537.9z M798.4,863
				c-22.2,22.8-50.5,34.1-85,34.1c-37.2,0-67.8-14.4-91.6-43.3c-24-29-35.9-76.2-35.9-141.9c0-67.4,12.5-116.1,37.4-145.8
				c24.9-29.8,57.3-44.8,97.2-44.8c27.9,0,51.1,7.8,69.4,23.4c18.3,15.6,30,38.4,35.1,68.2l-68.2,7.6c-1.6-14-6-24.4-13.1-31.2
				c-7-6.8-16.2-10.1-27.3-10.1c-15,0-27.5,6.8-37.8,20.1c-10.3,13.4-16.8,41.3-19.5,83.6c17.7-20.7,39.4-31.2,65.5-31.2
				c29.4,0,54.6,11.3,75.8,33.7c21,22.4,31.4,51.4,31.4,86.9C831.4,810,820.3,840.2,798.4,863z"/>
		</g>
	</g>
</g>
</svg>
