<?xml version="1.0" encoding="utf-8"?>
<!-- Generator: Adobe Illustrator 25.2.0, SVG Export Plug-In . SVG Version: 6.00 Build 0)  -->
<svg version="1.1" id="Capa_1" xmlns="http://www.w3.org/2000/svg" xmlns:xlink="http://www.w3.org/1999/xlink" x="0px" y="0px"
	 viewBox="0 0 1122 1122" style="enable-background:new 0 0 1122 1122;" xml:space="preserve">
<style type="text/css">
	.st0{fill:#FFFFFF;stroke:#70BC7D;stroke-width:18;stroke-miterlimit:10;}
</style>
<g id="Bg">
</g>
<g id="Object">
	<g>
		<path class="st0" d="M1043.9,207.8c-11.4-11.4-27.1-18-43.3-18h-104V270c0,14.9-12.1,27.1-27.1,27.1h-57.1
			c-14.9,0-27.1-12.1-27.1-27.1v-80.2H350.3V270c0,14.9-12.1,27.1-27.1,27.1H266c-15.1,0-27.1-12.1-27.1-27.1v-80.2h-63.7h-32.7
			h-7.7c-16.1,0-32,6.6-43.4,18c-11.4,11.4-18,27.1-18,43.3v71.2v41.9v36.3h988.3v-36.3v-41.9V251
			C1061.9,234.9,1055.3,219.2,1043.9,207.8z"/>
		<polygon class="st0" points="266,270 323.2,270 323.2,189.8 323.2,119.2 266,119.2 266,189.8 		"/>
		<polygon class="st0" points="812.3,270 869.4,270 869.4,189.8 869.4,119.2 812.3,119.2 812.3,189.8 		"/>
		<path class="st0" d="M73.6,422.7v506.9c0,16.1,6.6,32,18,43.4s27.3,18,43.4,18h7.7h32.7h825.4c16.1,0,32-6.6,43.4-18
			s18-27.1,18-43.3v-507H73.6z M272.6,910.9H131.1V785.1h141.5L272.6,910.9L272.6,910.9z M272.6,750.3H131.1V624.5h141.5
			L272.6,750.3L272.6,750.3z M455.5,910.9H314V785.1h141.5V910.9z M455.5,750.3H314V624.5h141.5V750.3z M455.5,589.6H314V463.6
			h141.5V589.6z M638.4,910.9H497V785.1h141.5v125.8H638.4z M638.4,750.3H497V624.5h141.5v125.8H638.4z M638.4,589.6H497V463.6
			h141.5v125.9H638.4z M821.5,910.9H680V785.1h141.5V910.9z M821.5,750.3H680V624.5h141.5V750.3z M821.5,589.6H680V463.6h141.5
			V589.6z M1004.4,750.3H862.9V624.5h141.5L1004.4,750.3L1004.4,750.3z M1004.4,589.6H862.9V463.6h141.5L1004.4,589.6L1004.4,589.6z
			"/>
	</g>
</g>
</svg>
