<?xml version="1.0" encoding="utf-8"?>
<!-- Generator: Adobe Illustrator 25.2.0, SVG Export Plug-In . SVG Version: 6.00 Build 0)  -->
<svg version="1.1" id="Capa_1" xmlns="http://www.w3.org/2000/svg" xmlns:xlink="http://www.w3.org/1999/xlink" x="0px" y="0px"
	 viewBox="0 0 500 500" style="enable-background:new 0 0 500 500;" xml:space="preserve">
<style type="text/css">
	.st0{fill:#71BC7E;}
</style>
<path class="st0" d="M12.6,234.6c0-3.6,1.6-7,2.1-10.6c6.3-43.6,28.7-83.3,62.7-111.3c24.9-21.3,55.5-35,88-39.4
	c48.7-7.8,98.5,5.2,137.2,35.8c25.3,19.7,44.7,45.9,56.1,75.8c3.1,6.1,0.6,13.5-5.5,16.6c-1.9,1-4,1.4-6.2,1.3
	c-19.5,0-38.9,0-58.4,0c-7.1-0.8-12.1-7.3-11.3-14.3c0.7-5.9,5.4-10.6,11.3-11.3h37.6c-9.3-18-22.3-33.9-38.2-46.6
	c-27.3-22.6-61.7-34.7-97.1-34c-84.8,0.1-153.4,69-153.3,153.8c0.1,72.3,50.7,134.7,121.4,149.9c66.6,14.8,134.9-16.7,166.8-77
	c-10.2,0-19.9,0-29.7,0c-1.3,0-2.7,1.8-3.6,3c-42.7,55.8-122.5,66.4-178.3,23.8c-2.4-1.9-4.8-3.8-7.1-5.9
	c-24.2-20.3-39.3-49.6-41.7-81.2c-7.2-69.8,43.5-132.2,113.3-139.4c16.7-1.7,33.5-0.1,49.6,4.7c9.3,2.7,13.4,9.1,11.3,16.7
	s-9.1,10.7-18.8,7.9c-24.9-7.8-51.9-5.5-75.1,6.4c-39.5,20.2-61.3,63.8-53.7,107.5c7.2,45.5,44.6,80.2,90.5,84.2
	c35.9,3.9,71.1-12.1,91.7-41.7c1.6-2.1,2.7-5.2,4.8-6.6c3-2.5,6.7-4.1,10.6-4.7c18.8,0,37.8,0,56.6,0c7-0.3,13,5.1,13.3,12.1
	c0.1,2-0.3,4-1.1,5.8c-36.6,91.9-140.8,136.7-232.7,100.1c-24.8-9.9-47.1-25.2-65.2-44.8c-25.5-26.7-41.6-61-46-97.6
	c-0.4-2.7-1-5.3-1.8-7.9L12.6,234.6z"/>
<path class="st0" d="M374.3,237.5c0-12.4,0-24.4,0-35.8c-0.6-6.9,4.6-13,11.5-13.5c1-0.1,1.9,0,2.9,0.1c2.2,0.3,4.2,1,6.1,2.1
	l84.9,49.1c6.5,2.7,9.5,10.2,6.8,16.6c-1.3,3.1-3.7,5.5-6.8,6.8c-28.1,16.5-56.4,32.6-84.6,48.9c-5.7,4.3-13.8,3.2-18.1-2.4
	c-2.1-2.7-3-6.2-2.5-9.6c0-11.6,0-23.5,0-35.8H226.7c-7.1,1-13.6-3.9-14.6-11c0-0.3-0.1-0.7-0.1-1c-0.6-6.5,3.9-12.3,10.4-13.3
	c2-0.3,4-0.3,5.9,0h146.2L374.3,237.5z M400.3,278.7l48.9-28.3l-48.9-28.1V278.7z"/>
</svg>
