<?xml version="1.0" standalone="no"?>
<!DOCTYPE svg PUBLIC "-//W3C//DTD SVG 20010904//EN"
 "http://www.w3.org/TR/2001/REC-SVG-20010904/DTD/svg10.dtd">
<svg version="1.0" xmlns="http://www.w3.org/2000/svg"
 width="1056.000000pt" height="1056.000000pt" viewBox="0 0 1056.000000 1056.000000"
 preserveAspectRatio="xMidYMid meet">
<metadata>
Created by potrace 1.14, written by Peter Selinger 2001-2017
</metadata>
<g transform="translate(0.000000,1056.000000) scale(0.100000,-0.100000)"
fill="#000000" stroke="none">
<path d="M6177 10124 c-3 -3 -52 -8 -109 -10 -57 -2 -119 -6 -138 -8 -49 -7
-111 -16 -140 -22 -14 -2 -36 -6 -50 -9 -56 -10 -127 -28 -170 -42 -25 -8 -52
-16 -60 -18 -58 -14 -205 -72 -293 -116 -32 -16 -65 -29 -73 -29 -8 0 -14 -4
-14 -9 0 -5 -15 -14 -32 -22 -18 -7 -35 -16 -38 -19 -6 -8 -56 -35 -92 -51
-16 -6 -28 -14 -28 -19 0 -4 -13 -13 -29 -20 -27 -11 -33 -9 -68 16 -21 16
-40 31 -43 34 -5 5 -27 18 -75 44 -11 6 -22 14 -25 17 -9 10 -175 88 -253 119
-65 25 -194 63 -256 75 -9 2 -16 4 -16 5 0 1 -13 4 -30 6 -38 4 -90 12 -90 14
0 9 -319 14 -380 6 -16 -2 -55 -7 -85 -11 -30 -4 -58 -9 -61 -11 -3 -1 -28 -6
-55 -10 -27 -3 -55 -11 -61 -16 -7 -6 -13 -8 -13 -5 0 4 -18 0 -40 -8 -22 -8
-40 -12 -40 -10 0 4 -132 -46 -190 -71 -53 -23 -150 -74 -192 -101 -21 -13
-40 -23 -43 -23 -3 0 -11 -4 -18 -10 -7 -5 -49 -39 -95 -75 -82 -65 -202 -182
-202 -197 0 -4 -12 -3 -27 3 -16 7 -37 15 -48 19 -11 5 -33 12 -50 16 -16 4
-34 8 -40 10 -106 31 -326 34 -485 9 -115 -19 -358 -90 -372 -110 -4 -5 -8 -7
-8 -3 0 10 -251 -103 -270 -122 -3 -3 -25 -15 -50 -27 -25 -13 -63 -34 -85
-48 -22 -14 -50 -30 -62 -37 -13 -6 -23 -15 -23 -20 0 -4 -7 -8 -15 -8 -8 0
-15 -4 -15 -9 0 -5 -8 -12 -17 -15 -10 -4 -34 -20 -53 -36 -19 -17 -55 -47
-78 -68 -95 -81 -194 -186 -266 -282 -22 -30 -46 -60 -53 -67 -13 -14 -94
-177 -97 -196 -1 -6 -4 -16 -7 -22 -6 -9 -14 -41 -25 -90 -3 -11 -7 -47 -10
-80 -3 -33 -7 -66 -9 -72 -3 -7 -1 -13 3 -13 4 0 7 -28 8 -63 0 -59 5 -95 20
-144 5 -19 1 -25 -22 -34 -16 -6 -33 -12 -39 -13 -22 -5 -102 -50 -140 -79
-105 -82 -184 -204 -211 -327 -4 -19 -9 -42 -11 -50 -2 -8 -5 -52 -7 -98 -6
-172 49 -352 147 -485 26 -35 141 -150 180 -180 15 -12 40 -32 55 -44 14 -12
73 -48 130 -80 l103 -58 -5 -55 c-2 -30 -10 -72 -16 -94 -6 -21 -13 -47 -15
-57 -5 -23 -33 -122 -51 -174 -64 -191 -92 -411 -71 -550 21 -142 103 -294
217 -402 14 -13 36 -34 50 -47 59 -56 291 -197 325 -197 2 0 25 -8 51 -19 45
-20 147 -46 214 -56 19 -3 43 -7 52 -10 10 -3 68 -7 130 -9 62 -3 115 -5 118
-6 3 -1 10 0 15 1 6 1 30 4 55 6 103 10 150 16 210 29 97 21 127 28 135 33 10
6 16 8 50 15 8 2 18 6 21 10 4 4 16 7 26 7 10 0 18 5 18 11 0 5 4 8 9 4 12 -7
271 124 271 137 0 4 5 8 10 8 6 0 34 18 62 40 l51 41 74 -78 c41 -43 103 -110
139 -150 36 -39 84 -92 107 -116 103 -107 243 -260 248 -270 4 -7 11 -39 17
-72 21 -115 23 -122 77 -365 3 -14 16 -60 51 -187 9 -32 17 -65 19 -73 2 -8 4
-16 5 -17 2 -2 3 -6 4 -10 6 -23 82 -246 93 -273 3 -8 7 -18 7 -22 1 -3 4 -10
9 -14 4 -4 7 -14 7 -21 0 -8 8 -33 18 -56 10 -23 36 -82 58 -132 52 -121 171
-363 196 -397 11 -16 16 -28 12 -28 -4 0 0 -8 8 -17 8 -10 26 -38 39 -63 13
-25 29 -51 36 -58 6 -6 15 -21 18 -32 3 -11 11 -20 16 -20 5 0 9 -4 9 -9 0
-12 61 -105 72 -109 4 -2 8 -9 8 -16 0 -7 8 -21 17 -32 10 -11 50 -62 90 -114
78 -104 138 -174 223 -262 30 -31 62 -65 71 -75 14 -16 112 -106 196 -180 27
-23 34 -39 43 -93 5 -36 12 -76 14 -90 6 -29 14 -86 21 -150 3 -25 8 -61 11
-80 4 -19 8 -55 10 -80 2 -25 6 -70 9 -100 3 -30 7 -113 10 -185 6 -137 10
-191 19 -240 22 -116 30 -151 36 -160 4 -5 10 -23 14 -40 26 -106 133 -245
247 -319 127 -83 285 -117 424 -92 70 13 148 52 244 123 13 10 24 7 61 -17 25
-16 50 -33 55 -37 6 -5 30 -17 55 -28 25 -11 48 -24 52 -30 4 -5 8 -7 8 -4 0
6 24 2 105 -17 11 -3 65 -5 120 -5 88 0 117 3 160 15 6 2 28 6 50 11 22 4 45
11 50 15 6 3 29 12 53 20 23 7 42 18 42 23 0 6 3 8 6 4 5 -5 79 36 123 68 40
28 191 187 191 200 0 8 4 15 9 15 9 0 56 99 66 142 4 16 12 25 18 21 5 -3 7
-1 4 4 -4 6 0 35 8 64 9 30 18 65 21 79 3 14 7 30 8 35 2 6 6 26 9 45 4 19 10
51 13 70 4 19 7 128 8 242 l1 207 110 57 c61 31 122 63 136 71 15 7 32 20 39
28 7 8 17 15 23 15 9 0 115 67 127 81 3 3 26 20 52 37 25 18 52 38 60 45 7 7
22 19 34 27 77 53 394 358 394 379 0 6 7 11 15 11 8 0 15 4 15 8 0 5 21 33 46
63 25 30 53 63 62 74 37 43 161 214 205 280 26 39 51 75 57 82 5 7 10 15 10
17 0 3 15 29 33 58 19 29 37 60 40 68 4 8 16 29 27 45 10 17 42 75 71 130 28
55 56 106 61 112 6 7 7 13 2 13 -5 0 -4 4 2 8 21 14 175 376 236 552 16 47 32
92 35 100 3 8 7 20 8 25 1 6 10 33 20 60 9 28 18 57 20 66 2 8 11 40 20 70 14
45 57 210 71 271 2 10 6 26 8 35 10 39 56 262 62 299 3 21 8 46 9 54 2 8 4 23
4 33 1 10 4 16 9 14 23 -14 195 -22 288 -13 59 6 188 43 237 67 23 12 52 27
64 33 13 6 23 14 23 19 0 4 5 7 12 7 16 0 142 98 203 156 73 72 164 188 220
282 28 46 60 100 73 120 13 20 25 45 29 55 3 9 9 17 13 17 4 0 15 15 24 33 9
17 27 50 41 72 43 70 155 293 155 308 0 8 7 20 15 27 9 7 14 15 11 17 -2 3 6
28 19 57 21 47 60 167 71 220 30 135 33 172 30 316 -3 135 -13 215 -34 270 -3
8 -6 17 -6 20 -8 33 -53 140 -58 140 -5 0 -8 9 -8 19 0 11 -4 21 -8 23 -4 2
-20 24 -35 49 -35 61 -56 86 -154 185 -138 139 -342 259 -548 324 -38 12 -86
26 -105 30 -19 5 -44 10 -55 13 -11 3 -44 8 -72 12 -29 4 -55 10 -57 13 -2 4
2 34 9 68 7 33 11 96 8 140 -5 107 -6 114 -15 114 -4 0 -8 8 -8 18 0 22 -100
222 -111 222 -5 0 -9 5 -9 12 0 13 -2 16 -106 126 -42 45 -82 82 -87 82 -5 0
-17 8 -26 18 -9 10 -45 38 -81 63 -36 24 -67 46 -70 49 -3 3 -16 11 -30 18
-14 7 -50 26 -80 43 -159 89 -413 175 -578 195 -26 3 -47 6 -48 7 -1 1 -32 40
-69 87 -37 47 -70 87 -74 90 -3 3 -29 32 -57 65 -49 57 -143 153 -236 241 -24
22 -81 71 -128 108 -47 37 -93 74 -103 82 -9 8 -21 14 -26 14 -5 0 -11 4 -13
9 -3 8 -126 91 -173 117 -29 16 -98 55 -110 62 -5 4 -16 7 -23 8 -8 2 -21 9
-30 17 -10 7 -48 27 -87 42 -38 16 -74 32 -80 36 -5 3 -55 21 -110 39 -55 17
-116 38 -136 45 -20 8 -39 12 -42 9 -3 -3 -14 -1 -24 4 -10 5 -36 12 -58 16
-40 6 -70 11 -122 22 -38 7 -134 15 -218 17 -38 1 -73 5 -76 10 -3 4 -8 5 -12
1z m-2192 -378 c59 -8 107 -15 135 -22 14 -3 36 -8 50 -11 14 -2 32 -7 40 -10
8 -3 20 -7 27 -9 28 -6 89 -27 99 -35 6 -5 20 -10 31 -12 12 -2 27 -8 35 -14
7 -6 16 -11 19 -10 6 2 81 -35 89 -44 3 -3 20 -12 38 -20 17 -8 32 -17 32 -20
0 -4 9 -9 21 -12 18 -5 15 -10 -28 -49 -26 -23 -88 -82 -137 -130 -49 -49 -93
-88 -98 -88 -4 0 -8 -3 -8 -7 0 -5 -21 -30 -45 -58 -25 -27 -91 -106 -146
-175 -55 -69 -109 -135 -119 -147 -10 -13 -16 -23 -13 -23 4 0 -3 -10 -14 -22
-11 -13 -38 -50 -59 -83 -22 -33 -42 -61 -46 -63 -5 -2 -8 -8 -8 -14 0 -5 -11
-24 -25 -42 -14 -18 -25 -36 -25 -39 0 -4 -17 -35 -38 -69 -60 -98 -203 -369
-202 -383 0 -3 -7 -20 -17 -38 -9 -17 -18 -34 -18 -37 -1 -3 -9 -21 -17 -40
-63 -137 -200 -502 -212 -565 -2 -5 -12 -41 -24 -79 -22 -67 -29 -95 -39 -148
-3 -16 -8 -28 -12 -28 -4 0 -7 -8 -7 -17 -1 -16 -10 -61 -18 -88 -8 -27 -16
-63 -20 -85 -2 -14 -9 -47 -16 -75 -6 -27 -20 -97 -31 -155 -26 -142 -27 -149
-34 -195 -2 -22 -7 -51 -9 -65 -11 -65 -23 -167 -31 -265 -2 -27 -5 -50 -5
-50 -9 0 -24 -339 -24 -542 -1 -117 -4 -213 -8 -213 -11 0 -73 100 -118 189
-37 73 -43 87 -70 158 -36 97 -149 136 -235 83 -38 -24 -57 -50 -75 -105 -50
-155 -208 -311 -415 -410 -69 -33 -208 -83 -252 -91 -13 -2 -35 -6 -50 -9 -37
-7 -101 -16 -140 -19 -18 -1 -35 -5 -39 -8 -3 -4 -16 -3 -28 2 -13 4 -29 4
-36 0 -8 -5 -18 -6 -23 -3 -5 3 -37 7 -71 8 -33 2 -77 6 -96 10 -19 3 -46 8
-60 10 -29 5 -102 28 -145 46 -16 7 -32 13 -35 14 -43 14 -148 80 -214 135
-130 108 -184 262 -152 432 12 63 14 73 31 138 9 36 18 70 19 75 1 6 4 15 8
20 5 9 19 66 20 82 0 5 6 24 14 43 14 36 36 114 39 140 2 8 6 29 9 45 18 79
19 187 1 250 -9 36 -21 65 -27 65 -5 0 -7 4 -4 9 8 12 -90 100 -140 127 -141
75 -201 117 -279 191 -71 68 -123 153 -140 233 -11 51 -14 172 -4 191 4 9 10
28 13 43 8 46 67 113 125 142 53 27 84 31 196 24 74 -5 124 20 158 78 28 48
27 140 -1 162 -23 17 -75 146 -87 215 -12 70 -6 160 16 229 27 88 49 128 129
230 30 38 116 130 154 165 22 20 47 43 56 51 39 35 100 80 109 80 6 0 11 4 11
9 0 9 96 71 110 71 5 0 10 3 12 8 2 4 35 23 73 41 39 19 77 39 85 46 36 28
331 139 369 138 9 0 21 4 28 9 6 5 30 10 52 11 23 1 41 4 41 8 0 4 12 7 28 7
15 0 73 2 130 4 57 2 105 1 108 -4 3 -4 11 -5 18 -2 29 11 165 -38 243 -89 93
-59 167 -44 246 52 9 12 17 25 17 29 0 11 106 129 145 162 16 14 37 32 45 40
28 26 79 60 90 60 5 0 10 5 10 10 0 6 6 10 14 10 8 0 16 3 18 8 3 7 143 83
153 82 3 0 24 9 48 19 93 43 273 87 400 97 39 4 73 7 74 8 4 3 168 -3 208 -8z
m4572 -1197 c24 -10 45 -19 48 -19 12 0 223 -131 247 -154 15 -14 30 -26 33
-26 14 0 101 -90 140 -145 88 -124 111 -216 76 -307 -12 -32 -78 -108 -95
-108 -18 -1 -60 -42 -79 -80 -38 -72 -2 -176 74 -209 32 -15 56 -18 103 -14
95 8 235 5 305 -6 35 -6 68 -8 72 -5 5 3 9 1 9 -4 0 -5 6 -9 13 -9 6 0 32 -6
57 -13 25 -8 48 -14 53 -16 4 -1 9 -3 12 -4 3 -1 8 -3 13 -5 4 -1 20 -7 35
-13 16 -7 32 -12 36 -12 24 0 201 -105 260 -155 50 -42 151 -149 157 -167 3
-10 9 -18 13 -18 4 0 13 -16 21 -35 8 -19 17 -35 20 -35 4 0 7 -6 8 -12 0 -7
10 -38 20 -69 45 -127 47 -281 5 -444 -8 -33 -16 -64 -18 -70 -1 -5 -5 -17 -8
-25 -3 -8 -14 -40 -25 -70 -41 -113 -192 -410 -214 -418 -4 -2 -6 -7 -3 -12 3
-4 -2 -13 -10 -20 -8 -7 -15 -17 -15 -22 0 -5 -5 -14 -10 -21 -24 -29 -70
-103 -70 -114 0 -7 -4 -13 -10 -13 -5 0 -10 -5 -10 -11 0 -22 -96 -156 -163
-226 -80 -84 -221 -185 -275 -198 -9 -3 -35 -9 -57 -15 -39 -10 -160 -14 -200
-6 -11 3 -28 5 -39 5 -17 1 -18 8 -12 84 11 135 14 183 21 367 4 96 9 178 11
182 3 5 -1 8 -8 9 -7 0 -8 2 -3 5 10 4 11 85 2 101 -3 5 -2 15 3 23 5 9 5 19
-2 27 -7 9 -7 13 1 13 7 0 10 4 6 9 -3 6 -7 56 -10 113 -2 57 -7 141 -11 188
-3 47 -7 102 -8 122 0 21 -3 38 -6 38 -3 0 -5 21 -6 48 -1 46 -12 148 -21 187
-2 11 -6 40 -9 65 -2 25 -7 54 -11 65 -3 11 -7 36 -9 55 -1 19 -5 44 -8 55 -2
11 -12 56 -20 100 -9 44 -21 98 -26 120 -23 96 -41 171 -45 190 -6 31 -65 238
-72 255 -3 8 -7 18 -8 23 -2 4 -3 8 -5 10 -1 1 -3 10 -5 20 -2 10 -7 26 -11
35 -4 9 -8 22 -9 27 0 6 -4 17 -8 25 -4 8 -22 59 -42 113 -19 54 -42 111 -50
127 -9 17 -13 30 -11 30 3 0 -5 21 -18 48 -13 26 -30 64 -37 85 -7 20 -17 37
-21 37 -4 0 -8 7 -8 16 0 8 -38 90 -85 180 -47 91 -85 167 -85 169 0 4 54 -17
117 -46z m-3385 -6958 c42 -18 86 -33 97 -34 12 -1 21 -4 21 -8 0 -4 10 -9 23
-12 12 -3 54 -14 92 -25 39 -12 81 -23 95 -26 14 -3 36 -7 50 -11 84 -18 82
-18 185 -31 79 -11 446 -11 510 0 28 4 61 9 75 11 14 2 41 6 60 10 19 4 42 7
50 7 8 1 21 5 28 11 6 5 12 7 12 4 0 -3 15 -1 33 4 17 6 44 12 59 15 l27 5 -1
-113 c0 -98 -6 -156 -33 -293 -7 -36 -29 -110 -44 -148 -10 -25 -13 -27 -33
-15 -13 6 -31 13 -41 15 -19 3 -77 -26 -77 -38 0 -4 -14 -38 -32 -76 -17 -37
-32 -70 -33 -73 -2 -11 -36 -70 -39 -70 -3 0 -33 -7 -68 -17 -183 -47 -313 -1
-483 173 -72 74 -114 96 -162 88 -41 -6 -103 -35 -97 -45 2 -4 -4 -13 -15 -18
-20 -11 -37 -73 -33 -122 1 -16 -7 -34 -23 -49 -14 -13 -25 -20 -25 -16 0 5
-7 2 -16 -5 -24 -20 -121 -14 -175 10 -50 23 -104 69 -134 116 -11 17 -20 32
-21 35 0 3 -3 12 -7 20 -10 26 -25 83 -33 125 -4 22 -9 47 -10 55 -2 8 -6 76
-9 150 -2 74 -8 167 -11 205 -4 39 -7 91 -8 117 0 27 -4 48 -7 48 -3 0 -6 12
-6 28 -1 15 -4 48 -7 74 l-5 48 97 -49 c53 -27 131 -63 174 -80z"/>
</g>
</svg>
