<svg id="Capa_1" data-name="Capa 1" xmlns="http://www.w3.org/2000/svg" viewBox="0 0 166.14 67.01"><defs><style>.cls-1,.cls-2,.cls-3{fill:#fff;}.cls-2,.cls-3{stroke:#303031;stroke-linecap:round;stroke-linejoin:round;}.cls-2{stroke-width:2px;}</style></defs><path class="cls-1" d="M278,395.94a4.11,4.11,0,0,1-1-3.78.46.46,0,0,1,.12-.31c.18-.16.44,0,.6.19a8.46,8.46,0,0,1,1.89,3.56,5.81,5.81,0,0,1,.63-3.61c.22-.39.69-.79,1-.52a.8.8,0,0,1,.19.61,12.63,12.63,0,0,1-.59,4,11.93,11.93,0,0,1,2.14-3.42,1,1,0,0,1,.79-.42c.49.09.51.8.37,1.29a7.75,7.75,0,0,1-1.87,3.19,13.7,13.7,0,0,1,3.2-1.91,1.13,1.13,0,0,1,.69-.12.74.74,0,0,1,.45.81,1.8,1.8,0,0,1-.44.91,6.29,6.29,0,0,1-2.65,2" transform="translate(-120.53 -368.93)"/><path class="cls-1" d="M276.78,396.48a4.65,4.65,0,0,0-2.1,3.43,7.19,7.19,0,0,0,.76,4,5.2,5.2,0,0,1,.91,2.95c.16-1,1.87-1.64,2.62-1.94a8.89,8.89,0,0,0,3.25-2.06,4.1,4.1,0,0,0,1.22-3.47C282.9,396.62,279.16,395.08,276.78,396.48Z" transform="translate(-120.53 -368.93)"/><path class="cls-1" d="M196.61,420.87q-4.74,5-8.12,5a2.81,2.81,0,0,1-2.22-1,3.79,3.79,0,0,1-.84-2.59,20.37,20.37,0,0,1,1.81-6.7,12,12,0,0,0,1-3.08c0-.43-.17-.65-.51-.65a1.58,1.58,0,0,0-.76.28,11.51,11.51,0,0,0-1,.8c-.34.32-.72.7-1.14,1.15s-.77.82-1.19,1.31l-1.15,1.34a4.23,4.23,0,0,0-.95,2c-.2,1.16-.34,2.22-.41,3.19Q181,423,181,424.85l-4.53,1.06c-.15-1.84-.22-3.22-.22-4.12a24.83,24.83,0,0,1,.76-6.25,40.85,40.85,0,0,1,2.48-6.65l5-1a48.46,48.46,0,0,0-2.07,6.68,40.29,40.29,0,0,1,5.33-5.2,6.25,6.25,0,0,1,3.52-1.44,2.23,2.23,0,0,1,1.74.79,2.87,2.87,0,0,1,.69,2,21.09,21.09,0,0,1-1.76,6.48,15.23,15.23,0,0,0-1.21,4c0,.83.33,1.24,1,1.24,1,0,2.61-1.32,4.85-4Z" transform="translate(-120.53 -368.93)"/><path class="cls-1" d="M218.49,420.87a30.67,30.67,0,0,1-8.32,5.16q-1.9,5.42-4.29,7.67a7.23,7.23,0,0,1-5,2.24,2.81,2.81,0,0,1-2.11-.8A2.92,2.92,0,0,1,198,433q0-4,7.41-7.32l1.25-4.41c-2.59,2.88-4.86,4.33-6.81,4.33a3,3,0,0,1-2.55-1.3,5.57,5.57,0,0,1-1-3.44,18.77,18.77,0,0,1,1.35-6.65l2-5.2,6-1-2.55,6.09a19.58,19.58,0,0,0-1.75,6.64c0,1.24.41,1.85,1.25,1.85s1.81-.68,2.9-2.05a18.16,18.16,0,0,0,2.74-5.05l2.33-6.43,5.6-1-5.34,16a23.08,23.08,0,0,0,7.7-5.5Zm-13.66,6.85a12.24,12.24,0,0,0-3.88,2.53,4.08,4.08,0,0,0-1.37,2.76c0,.92.39,1.37,1.17,1.37Q203,434.38,204.83,427.72Z" transform="translate(-120.53 -368.93)"/><path class="cls-1" d="M240.37,420.87a43.75,43.75,0,0,1-4.69,4.06,4.93,4.93,0,0,1-2.71.94c-2.16,0-3.18-1.9-3.06-5.72a21,21,0,0,1-3.78,4.33,5.66,5.66,0,0,1-3.58,1.39,3.71,3.71,0,0,1-3.06-1.69,6.7,6.7,0,0,1-1.27-4.15,11.15,11.15,0,0,1,1.7-5.87,13.84,13.84,0,0,1,4.33-4.51,8.92,8.92,0,0,1,4.68-1.72,3.62,3.62,0,0,1,3.59,2.36l4.19-2.32h1.15l-1.81,6a26.08,26.08,0,0,0-1.4,6.21c0,1.18.42,1.77,1.25,1.77a2.82,2.82,0,0,0,1.77-.86c.64-.56,1.54-1.43,2.7-2.59Zm-15,1.13q2.05,0,3.87-3.5a14.13,14.13,0,0,0,1.81-6.45,2.8,2.8,0,0,0-.51-1.79,1.64,1.64,0,0,0-1.38-.65c-1.36,0-2.66,1.16-3.88,3.49a13.85,13.85,0,0,0-1.84,6.42,2.77,2.77,0,0,0,.55,1.79A1.68,1.68,0,0,0,225.36,422Z" transform="translate(-120.53 -368.93)"/><path class="cls-1" d="M270.56,420.87a34.24,34.24,0,0,1-4.39,3.75,6.26,6.26,0,0,1-3.55,1.25,2.67,2.67,0,0,1-2.14-.93,3.74,3.74,0,0,1-.79-2.51,18.93,18.93,0,0,1,1.11-5.62,21.49,21.49,0,0,0,1.11-4.14.59.59,0,0,0-.68-.66,1.19,1.19,0,0,0-.49.14,6.22,6.22,0,0,0-.7.41c-.26.19-.54.43-.84.7s-.62.59-.94.94-.71.75-1.07,1.17a4.73,4.73,0,0,0-1.07,1.79l-.68,2.93-1.24,4.84-5.19.94,2-8.45c.15-.61.32-1.51.53-2.7s.31-1.9.31-2.14q0-.69-.48-.69a.93.93,0,0,0-.41.14,4.9,4.9,0,0,0-.69.43c-.3.22-.62.48-1,.78s-.76.7-1.19,1.13-.91.95-1.39,1.5a4.94,4.94,0,0,0-1.23,2.58c-.22,1.17-.37,2.23-.45,3.16s-.15,2-.17,3.11l-4.55,1.09c-.11-1.57-.16-2.88-.16-3.94a24.35,24.35,0,0,1,.78-6.53,41.79,41.79,0,0,1,2.54-6.49l5-1a45.79,45.79,0,0,0-2.07,6.46q5.52-6.42,8.45-6.42a2.07,2.07,0,0,1,1.73.87,3.62,3.62,0,0,1,.67,2.29c0,.43-.07,1.24-.21,2.42a45.9,45.9,0,0,1,5-4.52,4.91,4.91,0,0,1,2.78-1.06,2.27,2.27,0,0,1,1.85.9,3.63,3.63,0,0,1,.71,2.3,18.06,18.06,0,0,1-1.2,5.64,18,18,0,0,0-1.21,4.55c0,.77.28,1.15.84,1.15a2.9,2.9,0,0,0,1.48-.71,30.34,30.34,0,0,0,3.33-3.25Z" transform="translate(-120.53 -368.93)"/><ellipse class="cls-1" cx="157.38" cy="396.11" rx="27.19" ry="18.91" transform="translate(-364.79 169.86) rotate(-87.89)"/><path class="cls-1" d="M280.65,420.87q-4.8,5-7.18,5a2.61,2.61,0,0,1-2.21-1.34,5.92,5.92,0,0,1-.91-3.37q0-4.38,3-12.1l5.21-1.09h.24l-2.05,6.42a21.73,21.73,0,0,0-1.27,5.68,1.86,1.86,0,0,0,.3,1.1.89.89,0,0,0,.75.42,2.76,2.76,0,0,0,1.61-.59,19.54,19.54,0,0,0,2.55-2.53Z" transform="translate(-120.53 -368.93)"/><path class="cls-2" d="M137.28,398.54c-.25.26,0,.64.24.9,3.57,3.87,7.15,7.34,9.37,11.87a35.93,35.93,0,0,1,3.25,10.19" transform="translate(-120.53 -368.93)"/><path class="cls-2" d="M146.67,402.61l6.51,10a63.17,63.17,0,0,1,5.09-15.89" transform="translate(-120.53 -368.93)"/><rect class="cls-1" x="38.43" y="51.44" width="3.79" height="4.57"/><path class="cls-2" d="M163.66,398.61q-3,8.86-5.29,17.89" transform="translate(-120.53 -368.93)"/><path class="cls-3" d="M159.6,430l1.23-2.66" transform="translate(-120.53 -368.93)"/><path class="cls-2" d="M126.87,400.16c3.65,2.09,9.59.25,10.63-3.29a8.43,8.43,0,0,0,5.33,5.33c2.76.77,6.47-1,6.08-3.32a6.4,6.4,0,0,0,6,.69,4.32,4.32,0,0,0,2.86-4.36,6.27,6.27,0,0,0,3.15,2.63c1.42.48,3.33.14,4-1-.1,1.8,1.63,3.55,3.81,3.87s4.53-.86,5.19-2.59c.16,2.22,3.61,3.78,6,2.72a7.13,7.13,0,0,0,3-3c1.76-2.75,3.56-5.89,2.41-8.84-1-2.65-4.6-4.46-8-4.05a2.41,2.41,0,0,0,1.25-2.7,5.07,5.07,0,0,0-1.88-2.59c-2.53-2.08-7-3.08-9.65-1.12.18-2.61-2.57-4.94-5.7-5.48a14.05,14.05,0,0,0-9,1.87c-1.28-2.41-4.36-4.12-7.58-4.19s-6.42,1.48-7.86,3.83c-2.09-1.57-5.5-.69-7.85.61a11.15,11.15,0,0,0-4.18,3.58,4.27,4.27,0,0,0,0,4.79,2.64,2.64,0,0,0-3.07,1.61,3.81,3.81,0,0,0,1.16,4.15c1.76,1.67,2.82.94,2.44,3C124.81,395.16,123,397.92,126.87,400.16Z" transform="translate(-120.53 -368.93)"/><path class="cls-2" d="M150.14,421.5a34,34,0,0,1,.38,3.75,6.86,6.86,0,0,0,.45,2.69,2.93,2.93,0,0,0,2.42,1.68c1.11.07,2.26-.83,1.94-1.7a5.31,5.31,0,0,0,2.17,1.63,4.15,4.15,0,0,0,4.6-1.95,9.07,9.07,0,0,0,.65-4.61" transform="translate(-120.53 -368.93)"/><path class="cls-2" d="M162.75,423a33.93,33.93,0,0,1,8.69-22.48" transform="translate(-120.53 -368.93)"/></svg>