<svg id="Capa_1" data-name="Capa 1" xmlns="http://www.w3.org/2000/svg" viewBox="0 0 166.14 67.01"><defs><style>.cls-1{fill:#70bc7e;}.cls-2{fill:#70bc7d;}.cls-3,.cls-4{fill:none;stroke:#303031;stroke-linecap:round;stroke-linejoin:round;}.cls-3{stroke-width:2px;}</style></defs><path class="cls-1" d="M294.42,363.69a4.11,4.11,0,0,1-1-3.78.49.49,0,0,1,.13-.31c.18-.16.44,0,.59.19a8.48,8.48,0,0,1,1.9,3.56,5.68,5.68,0,0,1,.63-3.61c.21-.38.68-.79,1-.52a.82.82,0,0,1,.2.62,12.35,12.35,0,0,1-.6,4,11.57,11.57,0,0,1,2.15-3.41c.21-.24.48-.48.78-.43.49.09.52.8.37,1.29a7.73,7.73,0,0,1-1.86,3.19,13.43,13.43,0,0,1,3.19-1.91,1.16,1.16,0,0,1,.7-.12.75.75,0,0,1,.45.81,1.89,1.89,0,0,1-.44.91,6.21,6.21,0,0,1-2.65,2" transform="translate(-136.91 -336.68)"/><path class="cls-1" d="M293.16,364.24a4.66,4.66,0,0,0-2.1,3.42,7.29,7.29,0,0,0,.77,4,5.19,5.19,0,0,1,.9,2.95c.16-1,1.88-1.63,2.62-1.94a8.85,8.85,0,0,0,3.26-2.06,4.12,4.12,0,0,0,1.22-3.46C299.29,364.37,295.54,362.83,293.16,364.24Z" transform="translate(-136.91 -336.68)"/><path class="cls-2" d="M213,388.62q-4.74,5-8.13,5a2.8,2.8,0,0,1-2.21-1,3.78,3.78,0,0,1-.84-2.58,20.52,20.52,0,0,1,1.8-6.71,11.8,11.8,0,0,0,1-3.08c0-.43-.17-.65-.52-.65a1.49,1.49,0,0,0-.75.29,7.89,7.89,0,0,0-1,.8c-.34.31-.72.69-1.15,1.14s-.76.82-1.19,1.32l-1.15,1.33a4.21,4.21,0,0,0-.94,2c-.2,1.16-.34,2.23-.41,3.2,0,.72-.06,1.7-.06,2.93l-4.53,1.07c-.15-1.85-.23-3.22-.23-4.13a24.83,24.83,0,0,1,.77-6.25,41.07,41.07,0,0,1,2.47-6.65l5-1a47.05,47.05,0,0,0-2.08,6.69,38.4,38.4,0,0,1,5.34-5.2,6.2,6.2,0,0,1,3.51-1.45,2.2,2.2,0,0,1,1.74.79,2.85,2.85,0,0,1,.7,2,20.79,20.79,0,0,1-1.77,6.47,15.39,15.39,0,0,0-1.2,4c0,.82.33,1.23,1,1.23q1.5,0,4.86-4Z" transform="translate(-136.91 -336.68)"/><path class="cls-2" d="M234.88,388.62a31.07,31.07,0,0,1-8.32,5.17q-1.92,5.41-4.29,7.66a7.19,7.19,0,0,1-5,2.24,2.8,2.8,0,0,1-2.1-.8,2.88,2.88,0,0,1-.79-2.13q0-4,7.4-7.32l1.25-4.41q-3.87,4.34-6.8,4.33a3.05,3.05,0,0,1-2.56-1.29,5.6,5.6,0,0,1-1-3.45,18.72,18.72,0,0,1,1.35-6.64l2-5.21,6-1-2.56,6.08a20.06,20.06,0,0,0-1.75,6.65c0,1.23.42,1.84,1.25,1.84s1.82-.68,2.9-2.05a18.24,18.24,0,0,0,2.74-5l2.34-6.44,5.59-1-5.33,16a23.18,23.18,0,0,0,7.7-5.5Zm-13.66,6.85a12.59,12.59,0,0,0-3.89,2.53,4.06,4.06,0,0,0-1.36,2.76q0,1.38,1.17,1.38C218.66,402.14,220,399.91,221.22,395.47Z" transform="translate(-136.91 -336.68)"/><path class="cls-2" d="M256.76,388.62a42.58,42.58,0,0,1-4.7,4.06,4.87,4.87,0,0,1-2.7.94c-2.16,0-3.18-1.9-3.06-5.72a21.31,21.31,0,0,1-3.78,4.33,5.66,5.66,0,0,1-3.58,1.39,3.72,3.72,0,0,1-3.07-1.69,6.73,6.73,0,0,1-1.26-4.15,11.14,11.14,0,0,1,1.69-5.87,14.08,14.08,0,0,1,4.34-4.51,8.87,8.87,0,0,1,4.68-1.72A3.62,3.62,0,0,1,248.9,378l4.2-2.32h1.15l-1.81,6A26,26,0,0,0,251,388c0,1.17.42,1.76,1.25,1.76a2.83,2.83,0,0,0,1.76-.85c.65-.57,1.55-1.44,2.71-2.6Zm-15,1.13q2,0,3.86-3.5a14.16,14.16,0,0,0,1.82-6.45,2.82,2.82,0,0,0-.51-1.79,1.68,1.68,0,0,0-1.38-.65q-2.06,0-3.88,3.49a13.85,13.85,0,0,0-1.84,6.42,2.81,2.81,0,0,0,.54,1.79A1.7,1.7,0,0,0,241.75,389.75Z" transform="translate(-136.91 -336.68)"/><path class="cls-2" d="M287,388.62a34.94,34.94,0,0,1-4.39,3.75,6.26,6.26,0,0,1-3.55,1.25,2.65,2.65,0,0,1-2.14-.93,3.74,3.74,0,0,1-.79-2.51,19.19,19.19,0,0,1,1.1-5.62,21.49,21.49,0,0,0,1.11-4.14.59.59,0,0,0-.67-.66,1.12,1.12,0,0,0-.5.15,4.57,4.57,0,0,0-.69.41c-.26.19-.54.42-.85.69s-.61.59-.94.95-.71.74-1.06,1.16a4.67,4.67,0,0,0-1.07,1.79l-.68,2.93-1.24,4.84-5.2.94,2-8.44c.15-.62.33-1.52.54-2.71a21.26,21.26,0,0,0,.3-2.13c0-.47-.15-.7-.47-.7a1.08,1.08,0,0,0-.41.14,4.94,4.94,0,0,0-.7.43q-.45.33-1,.78c-.37.33-.77.71-1.19,1.13s-.92.95-1.39,1.5a5,5,0,0,0-1.23,2.58c-.22,1.18-.37,2.23-.46,3.16s-.15,2-.16,3.12l-4.55,1.08c-.11-1.57-.17-2.88-.17-3.93a24.38,24.38,0,0,1,.78-6.54,42,42,0,0,1,2.55-6.49l5-1a45.79,45.79,0,0,0-2.07,6.46q5.5-6.42,8.45-6.42a2.09,2.09,0,0,1,1.73.87,3.71,3.71,0,0,1,.67,2.29c0,.44-.07,1.24-.21,2.42a45,45,0,0,1,5-4.52,4.91,4.91,0,0,1,2.78-1.06,2.25,2.25,0,0,1,1.84.9,3.59,3.59,0,0,1,.72,2.3,17.83,17.83,0,0,1-1.21,5.64,18.37,18.37,0,0,0-1.2,4.55c0,.77.28,1.15.83,1.15a2.84,2.84,0,0,0,1.49-.71,32.32,32.32,0,0,0,3.33-3.25Z" transform="translate(-136.91 -336.68)"/><path class="cls-2" d="M297,388.62q-4.8,5-7.18,5.05a2.64,2.64,0,0,1-2.22-1.35,5.92,5.92,0,0,1-.9-3.37q0-4.36,2.95-12.1l5.21-1.09h.25l-2,6.42a21.73,21.73,0,0,0-1.27,5.68,1.93,1.93,0,0,0,.29,1.1.89.89,0,0,0,.75.42,2.79,2.79,0,0,0,1.61-.58,20.38,20.38,0,0,0,2.56-2.54Z" transform="translate(-136.91 -336.68)"/><ellipse class="cls-2" cx="173.77" cy="363.86" rx="27.19" ry="18.91" transform="translate(-333.17 187.42) rotate(-87.89)"/><path class="cls-3" d="M143.26,367.91c3.65,2.09,9.59.25,10.63-3.29a8.41,8.41,0,0,0,5.33,5.33c2.76.77,6.47-1,6.08-3.31a6.4,6.4,0,0,0,6,.68,4.29,4.29,0,0,0,2.86-4.36,6.34,6.34,0,0,0,3.15,2.64c1.42.47,3.33.13,4-1-.1,1.8,1.62,3.56,3.81,3.87s4.53-.86,5.19-2.59c.16,2.22,3.61,3.78,6,2.72a7.16,7.16,0,0,0,3-3c1.76-2.75,3.56-5.88,2.41-8.84-1-2.64-4.6-4.46-8-4.05A2.41,2.41,0,0,0,195,350a5.09,5.09,0,0,0-1.88-2.6c-2.53-2.07-7-3.08-9.66-1.12.19-2.61-2.57-4.94-5.69-5.48a14.09,14.09,0,0,0-9,1.87c-1.27-2.41-4.35-4.11-7.58-4.19a9.17,9.17,0,0,0-7.86,3.83c-2.09-1.57-5.49-.69-7.84.61a11.08,11.08,0,0,0-4.18,3.58,4.25,4.25,0,0,0,0,4.79,2.65,2.65,0,0,0-3.08,1.61,3.81,3.81,0,0,0,1.17,4.15c1.76,1.67,2.81.94,2.43,3C141.2,362.91,139.34,365.67,143.26,367.91Z" transform="translate(-136.91 -336.68)"/><path class="cls-3" d="M153.66,366.29c-.25.26,0,.64.24.9,3.57,3.87,7.15,7.34,9.38,11.87A35.26,35.26,0,0,1,166.91,393a6.73,6.73,0,0,0,.45,2.7,2.91,2.91,0,0,0,2.41,1.67c1.12.07,2.26-.83,1.95-1.7a5.26,5.26,0,0,0,2.16,1.63,4.16,4.16,0,0,0,4.61-1.95c.78-1.42.66-3.05.65-4.61a33.85,33.85,0,0,1,8.69-22.47" transform="translate(-136.91 -336.68)"/><path class="cls-3" d="M163.05,370.37l6.52,10a62.57,62.57,0,0,1,5.09-15.88" transform="translate(-136.91 -336.68)"/><path class="cls-3" d="M180.05,366.37q-3,8.85-5.29,17.88" transform="translate(-136.91 -336.68)"/><path class="cls-4" d="M176,397.76c.41-.89.81-1.78,1.22-2.66" transform="translate(-136.91 -336.68)"/></svg>