<svg id="Capa_1" data-name="Capa 1" xmlns="http://www.w3.org/2000/svg" viewBox="0 0 26.51 20"><defs><style>.cls-1{fill:#70bc7d;}</style></defs><path class="cls-1" d="M284.18,564.54c0-.2.09-.39.12-.59a9.88,9.88,0,0,1,3.5-6.21,9.57,9.57,0,0,1,4.91-2.2,9.86,9.86,0,0,1,7.66,2,9.76,9.76,0,0,1,3.13,4.23.69.69,0,0,1-.65,1c-1.09,0-2.17,0-3.26,0a.72.72,0,0,1,0-1.43h2.1a8.06,8.06,0,0,0-2.13-2.6,8.27,8.27,0,0,0-5.42-1.9,8.57,8.57,0,0,0-1.78,16.95,8.45,8.45,0,0,0,9.31-4.3c-.57,0-1.11,0-1.66,0-.07,0-.15.1-.2.17a7.1,7.1,0,0,1-10.35,1,6.58,6.58,0,0,1-2.33-4.53,7.09,7.09,0,0,1,9.09-7.52c.52.15.75.51.63.93s-.51.6-1.05.44a5.55,5.55,0,0,0-4.19.36,5.66,5.66,0,0,0-3,6,5.6,5.6,0,0,0,5.05,4.7,5.51,5.51,0,0,0,5.12-2.33c.09-.12.15-.29.27-.37a1.2,1.2,0,0,1,.59-.26c1.05,0,2.11,0,3.16,0a.71.71,0,0,1,.68,1,10,10,0,0,1-16.63,3.09,9.54,9.54,0,0,1-2.57-5.45,3.48,3.48,0,0,0-.1-.44Z" transform="translate(-284.18 -555.43)"/><path class="cls-1" d="M304.37,564.7c0-.69,0-1.36,0-2a.7.7,0,0,1,.8-.75.87.87,0,0,1,.34.12l4.74,2.74a.71.71,0,0,1,0,1.31c-1.57.92-3.15,1.82-4.72,2.73a.72.72,0,0,1-1.15-.67c0-.65,0-1.31,0-2h-8.25a.72.72,0,0,1-.82-.67.68.68,0,0,1,.58-.74,1.22,1.22,0,0,1,.33,0h8.16Zm1.45,2.3,2.73-1.58-2.73-1.57Z" transform="translate(-284.18 -555.43)"/></svg>