<svg id="Capa_1" data-name="Capa 1" xmlns="http://www.w3.org/2000/svg" viewBox="0 0 66.15 61.78"><defs><style>.cls-1{fill:#70bc7d;}.cls-2,.cls-3{fill:none;stroke:#303031;stroke-linecap:round;stroke-linejoin:round;}.cls-2{stroke-width:2px;}</style></defs><ellipse class="cls-1" cx="332.78" cy="259.48" rx="27.19" ry="18.91" transform="matrix(0.04, -1, 1, 0.04, -234.72, 350.17)"/><path class="cls-2" d="M302.27,263.53c3.65,2.09,9.59.25,10.63-3.29a8.43,8.43,0,0,0,5.33,5.33c2.76.77,6.47-1,6.08-3.32a6.38,6.38,0,0,0,6,.69,4.32,4.32,0,0,0,2.87-4.36,6.27,6.27,0,0,0,3.15,2.63c1.42.48,3.33.14,4-1-.1,1.8,1.63,3.55,3.81,3.87s4.53-.86,5.19-2.59c.16,2.22,3.61,3.78,6,2.72a7.13,7.13,0,0,0,3-3c1.76-2.75,3.56-5.89,2.41-8.84-1-2.65-4.6-4.46-8-4a2.41,2.41,0,0,0,1.25-2.7,5.07,5.07,0,0,0-1.88-2.59c-2.53-2.07-7-3.08-9.66-1.12.19-2.61-2.56-4.94-5.69-5.48a14.05,14.05,0,0,0-9,1.87c-1.28-2.41-4.36-4.12-7.58-4.19s-6.42,1.48-7.86,3.83c-2.09-1.57-5.5-.69-7.85.61a11.15,11.15,0,0,0-4.18,3.58,4.25,4.25,0,0,0,0,4.79,2.66,2.66,0,0,0-3.08,1.61,3.83,3.83,0,0,0,1.17,4.15c1.76,1.67,2.82.94,2.43,3C300.21,258.53,298.35,261.29,302.27,263.53Z" transform="translate(-295.93 -232.3)"/><path class="cls-2" d="M312.68,261.91c-.25.26,0,.64.24.9,3.57,3.87,7.15,7.34,9.37,11.87a35.26,35.26,0,0,1,3.63,13.94,6.86,6.86,0,0,0,.45,2.69,2.93,2.93,0,0,0,2.42,1.68c1.11.07,2.25-.83,1.94-1.7a5.31,5.31,0,0,0,2.17,1.63,4.15,4.15,0,0,0,4.6-1.95,9.07,9.07,0,0,0,.65-4.61,33.93,33.93,0,0,1,8.69-22.48" transform="translate(-295.93 -232.3)"/><path class="cls-2" d="M322.07,266l6.51,10a63.17,63.17,0,0,1,5.09-15.89" transform="translate(-295.93 -232.3)"/><path class="cls-2" d="M339.06,262q-3,8.86-5.29,17.89" transform="translate(-295.93 -232.3)"/><path class="cls-3" d="M335,293.37c.41-.88.82-1.77,1.22-2.66" transform="translate(-295.93 -232.3)"/></svg>