<svg id="Capa_1" data-name="Capa 1" xmlns="http://www.w3.org/2000/svg" viewBox="0 0 174.96 70.07"><defs><style>.cls-1{fill:#70bc7d;}.cls-2,.cls-3,.cls-4{fill:none;}.cls-2{stroke:#70bc7d;stroke-miterlimit:10;}.cls-3,.cls-4{stroke:#303031;stroke-linecap:round;stroke-linejoin:round;}.cls-3{stroke-width:2px;}</style></defs><path class="cls-1" d="M304.35,232a9.79,9.79,0,0,0-4.16,2,3.74,3.74,0,0,0-1.3,3.86c.51,1.51,2.31,2.47,4.08,2.58a9.92,9.92,0,0,0,5-1.31c2.49-1.3,4-3.37,2.69-5.92C309.62,231.16,306.38,231.52,304.35,232Z" transform="translate(-149.52 -200.15)"/><path class="cls-2" d="M303.72,225.2c-.75,1.12-1.06,2.46-1.94,3.51-1.49,1.78-4.2,2.28-6.65,2.7s-5.16,1.06-6.47,2.94a2.63,2.63,0,0,0-.48,2.24c.39,1.27,1.95,1.95,3.4,2.25s3.05.49,3.7,1.61a2.7,2.7,0,0,1-.07,2.38,15.26,15.26,0,0,0-1,2.27,4.42,4.42,0,0,0,2.63,4.7,8.41,8.41,0,0,0,6.13.26,15.23,15.23,0,0,0,5.22-3.11c1.52-1.3,2.87-2.74,4.39-4a20.67,20.67,0,0,1,4.14-3.11c1.73-.88,3.61-1.52,5.24-2.55a5.19,5.19,0,0,0,1.65-1.54,2.15,2.15,0,0,0,.2-2.06c-.41-.87-1.46-1.32-2.32-1.87-2.11-1.35-1.08-5.38-4.76-5.41-1.17,0-2.26.56-3.42.65a4,4,0,0,1-3.51-1.51c-.72-1-1.14-1.72-2.59-1.93A3.56,3.56,0,0,0,303.72,225.2Z" transform="translate(-149.52 -200.15)"/><path class="cls-1" d="M225.17,255.15q-4.74,5-8.12,5a2.8,2.8,0,0,1-2.21-1,3.78,3.78,0,0,1-.84-2.58,20.52,20.52,0,0,1,1.8-6.71,12,12,0,0,0,1-3.08c0-.43-.17-.65-.51-.65a1.55,1.55,0,0,0-.76.29,8.67,8.67,0,0,0-1,.8c-.34.31-.73.69-1.15,1.14s-.77.82-1.19,1.32L211,251.05a4.21,4.21,0,0,0-.94,1.95,30.19,30.19,0,0,0-.41,3.2c0,.72-.06,1.7-.06,2.93l-4.54,1.07c-.15-1.85-.22-3.22-.22-4.13a24.38,24.38,0,0,1,.77-6.25,40.14,40.14,0,0,1,2.47-6.65l5-1A48.1,48.1,0,0,0,211,248.9a38.4,38.4,0,0,1,5.34-5.2,6.17,6.17,0,0,1,3.51-1.45,2.2,2.2,0,0,1,1.74.79,2.9,2.9,0,0,1,.7,2,20.79,20.79,0,0,1-1.77,6.47,15.57,15.57,0,0,0-1.21,4c0,.82.34,1.23,1,1.23q1.5,0,4.85-4Z" transform="translate(-149.52 -200.15)"/><path class="cls-1" d="M247.05,255.15a30.75,30.75,0,0,1-8.32,5.17q-1.9,5.42-4.29,7.66a7.17,7.17,0,0,1-5,2.24,2.77,2.77,0,0,1-2.1-.8,2.88,2.88,0,0,1-.79-2.13q0-4,7.4-7.32l1.25-4.41q-3.87,4.33-6.81,4.33a3,3,0,0,1-2.55-1.29,5.6,5.6,0,0,1-1-3.45,18.72,18.72,0,0,1,1.35-6.64l2-5.21,5.95-1-2.55,6.08a19.81,19.81,0,0,0-1.75,6.65c0,1.23.42,1.84,1.25,1.84s1.82-.68,2.9-2a18.24,18.24,0,0,0,2.74-5l2.34-6.44,5.59-1.05-5.33,16a23.13,23.13,0,0,0,7.69-5.5ZM233.4,262a12.47,12.47,0,0,0-3.89,2.53,4.06,4.06,0,0,0-1.36,2.76c0,.92.39,1.38,1.16,1.38C230.83,268.67,232.19,266.44,233.4,262Z" transform="translate(-149.52 -200.15)"/><path class="cls-1" d="M268.94,255.15a43.55,43.55,0,0,1-4.7,4.06,4.9,4.9,0,0,1-2.71.94c-2.16,0-3.18-1.9-3-5.72a21,21,0,0,1-3.79,4.33,5.62,5.62,0,0,1-3.58,1.39,3.71,3.71,0,0,1-3.06-1.69,6.73,6.73,0,0,1-1.26-4.15,11.14,11.14,0,0,1,1.69-5.87,14,14,0,0,1,4.34-4.51,8.87,8.87,0,0,1,4.67-1.72,3.63,3.63,0,0,1,3.59,2.36l4.19-2.32h1.15l-1.81,6a25.85,25.85,0,0,0-1.39,6.22c0,1.17.41,1.76,1.25,1.76a2.83,2.83,0,0,0,1.76-.85c.64-.57,1.54-1.44,2.71-2.6Zm-15,1.13q2.06,0,3.87-3.5a14.13,14.13,0,0,0,1.81-6.45,2.82,2.82,0,0,0-.51-1.79,1.66,1.66,0,0,0-1.37-.65c-1.37,0-2.66,1.16-3.89,3.49A14,14,0,0,0,252,253.8a2.81,2.81,0,0,0,.54,1.79A1.68,1.68,0,0,0,253.92,256.28Z" transform="translate(-149.52 -200.15)"/><path class="cls-1" d="M299.12,255.15a34.24,34.24,0,0,1-4.39,3.75,6.2,6.2,0,0,1-3.54,1.25,2.67,2.67,0,0,1-2.15-.93,3.79,3.79,0,0,1-.79-2.51,18.93,18.93,0,0,1,1.11-5.62,21.49,21.49,0,0,0,1.11-4.14.59.59,0,0,0-.68-.66,1.12,1.12,0,0,0-.49.15,4.61,4.61,0,0,0-.7.41,10.79,10.79,0,0,0-.84.69c-.3.28-.61.59-.94,1s-.71.74-1.07,1.16a4.75,4.75,0,0,0-1.06,1.79l-.68,2.93-1.24,4.84-5.2.94,2-8.44c.15-.62.33-1.52.53-2.71a19.63,19.63,0,0,0,.31-2.13c0-.47-.16-.7-.47-.7a1,1,0,0,0-.41.14,4.43,4.43,0,0,0-.7.43q-.45.33-1,.78c-.37.33-.77.71-1.19,1.13s-.92.95-1.4,1.5a5.18,5.18,0,0,0-1.23,2.58c-.22,1.18-.37,2.23-.45,3.16s-.15,2-.16,3.12l-4.56,1.08c-.1-1.57-.16-2.88-.16-3.93a24.38,24.38,0,0,1,.78-6.54,42.83,42.83,0,0,1,2.54-6.49l5-1a47.22,47.22,0,0,0-2.08,6.46q5.52-6.42,8.45-6.42a2.11,2.11,0,0,1,1.74.87,3.7,3.7,0,0,1,.66,2.29c0,.44-.07,1.24-.2,2.42a46.09,46.09,0,0,1,5-4.52,5,5,0,0,1,2.78-1.06,2.27,2.27,0,0,1,1.85.9,3.59,3.59,0,0,1,.72,2.3,18.12,18.12,0,0,1-1.21,5.64,18.09,18.09,0,0,0-1.21,4.55c0,.77.28,1.15.84,1.15a2.84,2.84,0,0,0,1.49-.71,31.53,31.53,0,0,0,3.32-3.25Z" transform="translate(-149.52 -200.15)"/><path class="cls-1" d="M309.21,255.15q-4.8,5-7.17,5a2.62,2.62,0,0,1-2.22-1.35,5.92,5.92,0,0,1-.9-3.37q0-4.36,2.95-12.1l5.21-1.09h.25l-2.05,6.42a21.87,21.87,0,0,0-1.28,5.68,1.86,1.86,0,0,0,.3,1.1.89.89,0,0,0,.75.42,2.81,2.81,0,0,0,1.61-.58,19.83,19.83,0,0,0,2.55-2.54Z" transform="translate(-149.52 -200.15)"/><ellipse class="cls-1" cx="186.37" cy="227.33" rx="27.19" ry="18.91" transform="translate(-197.19 205.05) rotate(-87.89)"/><path class="cls-3" d="M155.86,231.38c3.65,2.09,9.6.25,10.64-3.29a8.37,8.37,0,0,0,5.32,5.33c2.76.77,6.47-1,6.08-3.31a6.43,6.43,0,0,0,6,.68,4.3,4.3,0,0,0,2.86-4.36,6.34,6.34,0,0,0,3.15,2.64c1.42.47,3.33.13,4-1-.11,1.8,1.62,3.56,3.8,3.87s4.53-.86,5.19-2.59c.17,2.22,3.61,3.78,6,2.72a7.21,7.21,0,0,0,3-3c1.75-2.75,3.56-5.88,2.4-8.84-1-2.65-4.59-4.46-8-4a2.4,2.4,0,0,0,1.25-2.69,5,5,0,0,0-1.88-2.6c-2.53-2.07-7-3.08-9.65-1.12.18-2.61-2.57-4.94-5.7-5.48a14.05,14.05,0,0,0-9,1.87c-1.28-2.41-4.36-4.11-7.58-4.19s-6.42,1.48-7.86,3.83c-2.09-1.57-5.5-.69-7.85.61a11.15,11.15,0,0,0-4.18,3.58,4.27,4.27,0,0,0,0,4.79,2.64,2.64,0,0,0-3.07,1.61,3.82,3.82,0,0,0,1.16,4.15c1.76,1.67,2.82.94,2.44,3C153.8,226.38,152,229.14,155.86,231.38Z" transform="translate(-149.52 -200.15)"/><path class="cls-3" d="M166.27,229.76c-.25.26,0,.64.24.9,3.57,3.87,7.15,7.34,9.37,11.87a35.26,35.26,0,0,1,3.63,13.94,6.91,6.91,0,0,0,.45,2.7,2.92,2.92,0,0,0,2.42,1.67c1.11.07,2.26-.83,1.94-1.7a5.29,5.29,0,0,0,2.17,1.63,4.15,4.15,0,0,0,4.6-1.95c.79-1.42.67-3,.65-4.61a34,34,0,0,1,8.69-22.47" transform="translate(-149.52 -200.15)"/><path class="cls-3" d="M175.66,233.84l6.51,10A63.38,63.38,0,0,1,187.26,228" transform="translate(-149.52 -200.15)"/><path class="cls-3" d="M192.65,229.84q-3,8.85-5.29,17.88" transform="translate(-149.52 -200.15)"/><path class="cls-4" d="M188.59,261.23l1.23-2.66" transform="translate(-149.52 -200.15)"/></svg>